<svg xmlns="http://www.w3.org/2000/svg" xmlns:xlink="http://www.w3.org/1999/xlink" width="1080" zoomAndPan="magnify" viewBox="0 0 810 809.999993" height="1080" preserveAspectRatio="xMidYMid meet" version="1.0"><defs><g/></defs><g fill="#000000" fill-opacity="1"><g transform="translate(43.084809, 478.050025)"><g><path d="M 2.996094 -37.628906 C 2.996094 -37.628906 2.996094 -37.628906 2.886719 -37.628906 C 2.996094 -35.742188 2.996094 -33.964844 3.109375 -32.078125 C 3.109375 -31.300781 3.21875 -30.636719 3.328125 -29.96875 C 3.550781 -29.304688 3.773438 -28.527344 3.886719 -27.859375 C 4.441406 -25.753906 5.105469 -23.753906 6.105469 -21.867188 C 7.660156 -18.757812 9.324219 -15.761719 11.433594 -12.988281 C 11.878906 -12.433594 12.320312 -11.878906 12.652344 -11.320312 C 15.539062 -7.324219 19.09375 -4.328125 23.308594 -2.109375 C 25.53125 -1 27.859375 -0.222656 30.304688 0.109375 C 30.96875 0.222656 31.636719 0.222656 32.410156 0.332031 C 33.523438 0.445312 34.742188 0.554688 35.851562 0.777344 C 37.074219 1 38.40625 1.109375 39.628906 1.109375 C 42.511719 1.109375 45.398438 1.109375 48.175781 0.554688 C 48.507812 0.445312 48.839844 0.445312 49.0625 0.445312 C 50.949219 0.109375 52.726562 -0.222656 54.5 -0.664062 C 56.609375 -1.222656 58.71875 -1.777344 60.605469 -2.773438 C 61.714844 -3.441406 62.824219 -4.105469 63.9375 -4.773438 C 64.269531 -4.882812 64.601562 -5.21875 64.933594 -5.4375 C 65.488281 -5.882812 65.710938 -6.328125 65.824219 -6.882812 C 66.046875 -7.882812 66.046875 -8.878906 65.933594 -9.878906 C 65.933594 -10.878906 64.601562 -11.65625 63.714844 -11.320312 C 62.9375 -10.878906 62.269531 -10.433594 61.605469 -9.878906 C 59.050781 -7.992188 56.386719 -6.328125 53.503906 -4.882812 C 51.503906 -3.886719 49.171875 -3.328125 46.953125 -2.996094 C 44.734375 -2.664062 42.402344 -2.664062 40.070312 -3.109375 C 38.515625 -3.441406 36.964844 -3.664062 35.410156 -3.773438 C 34.964844 -3.773438 34.632812 -3.886719 34.1875 -4.105469 C 32.410156 -4.773438 30.746094 -5.550781 29.191406 -6.550781 C 27.75 -7.546875 26.527344 -8.769531 25.753906 -10.324219 C 24.640625 -12.210938 23.53125 -13.984375 22.53125 -15.871094 C 21.757812 -17.316406 21.199219 -18.757812 20.867188 -20.3125 C 20.535156 -21.867188 20.3125 -23.421875 19.867188 -24.976562 C 19.425781 -26.527344 19.203125 -28.304688 18.871094 -29.96875 C 18.425781 -31.96875 18.316406 -37.851562 18.757812 -39.847656 C 19.203125 -41.625 19.3125 -43.511719 19.3125 -45.398438 C 19.3125 -47.617188 19.425781 -49.949219 20.089844 -52.171875 C 20.757812 -55.390625 21.976562 -58.496094 23.421875 -61.382812 C 23.753906 -61.9375 23.976562 -62.382812 24.308594 -62.9375 C 26.085938 -65.488281 28.082031 -67.933594 30.746094 -69.707031 C 31.414062 -70.261719 32.078125 -70.816406 32.855469 -71.261719 C 35.742188 -73.261719 38.851562 -74.480469 42.511719 -74.371094 C 43.511719 -74.257812 44.511719 -74.371094 45.511719 -74.257812 C 48.0625 -73.816406 50.617188 -73.480469 53.167969 -73.371094 C 53.28125 -73.371094 53.390625 -73.371094 53.613281 -73.261719 C 55.054688 -72.816406 56.609375 -72.59375 58.164062 -72.039062 C 58.941406 -71.707031 59.71875 -71.371094 60.496094 -71.152344 C 61.605469 -70.816406 62.714844 -70.597656 63.9375 -70.707031 C 64.492188 -70.816406 64.933594 -71.371094 64.933594 -71.929688 C 64.933594 -72.703125 64.601562 -73.261719 64.046875 -73.703125 C 62.714844 -74.703125 61.273438 -75.148438 59.828125 -75.8125 C 59.496094 -75.925781 59.273438 -75.925781 58.941406 -76.035156 C 56.832031 -76.257812 54.722656 -76.589844 52.503906 -76.8125 C 50.503906 -77.035156 48.507812 -77.257812 46.621094 -77.476562 C 44.734375 -77.699219 42.847656 -77.921875 40.960938 -77.921875 C 39.40625 -77.921875 37.851562 -77.699219 36.296875 -77.367188 C 34.410156 -76.8125 32.410156 -76.367188 30.414062 -76.035156 C 29.746094 -76.035156 29.082031 -75.703125 28.414062 -75.480469 C 26.085938 -74.371094 23.863281 -73.148438 21.535156 -71.929688 C 16.539062 -69.152344 16.761719 -69.152344 12.433594 -64.824219 C 12.320312 -64.824219 12.210938 -64.714844 12.097656 -64.601562 C 9.433594 -61.714844 7.214844 -58.609375 5.773438 -54.945312 C 4.882812 -52.390625 3.886719 -49.839844 3.773438 -47.0625 C 3.664062 -46.621094 3.664062 -46.175781 3.441406 -45.730469 C 3.109375 -44.511719 2.996094 -43.289062 2.996094 -41.957031 C 2.996094 -40.515625 2.996094 -39.070312 2.996094 -37.628906 Z M 7.546875 -37.851562 C 7.546875 -38.738281 7.660156 -39.738281 7.769531 -40.738281 C 7.769531 -41.515625 7.992188 -42.179688 8.101562 -42.847656 C 8.324219 -45.621094 8.992188 -48.285156 9.878906 -50.839844 C 10.65625 -53.28125 11.65625 -55.609375 13.210938 -57.71875 C 14.097656 -58.941406 14.875 -60.050781 15.761719 -61.160156 C 16.09375 -61.492188 16.429688 -61.714844 16.761719 -61.9375 C 16.871094 -62.050781 17.09375 -62.160156 17.203125 -62.050781 C 17.425781 -61.9375 17.539062 -61.605469 17.539062 -61.382812 C 17.539062 -61.050781 17.425781 -60.828125 17.316406 -60.496094 C 16.761719 -58.941406 16.207031 -57.277344 15.652344 -55.609375 C 15.097656 -53.722656 14.984375 -51.726562 14.539062 -49.726562 C 14.429688 -49.507812 14.429688 -49.171875 14.429688 -48.949219 C 14.207031 -42.511719 14.097656 -36.074219 14.207031 -29.636719 C 14.207031 -28.75 14.207031 -27.859375 14.207031 -27.085938 C 14.320312 -26.640625 14.320312 -26.195312 14.429688 -25.753906 C 15.097656 -24.199219 15.097656 -22.421875 15.539062 -20.757812 C 15.761719 -20.089844 15.871094 -19.425781 15.984375 -18.648438 C 16.09375 -18.316406 15.984375 -17.871094 15.984375 -17.425781 C 15.871094 -17.316406 15.761719 -17.09375 15.761719 -17.09375 C 15.429688 -17.09375 15.207031 -17.09375 14.984375 -17.203125 C 14.761719 -17.316406 14.539062 -17.539062 14.429688 -17.761719 C 12.433594 -20.644531 10.878906 -23.644531 9.65625 -26.863281 C 8.324219 -30.414062 7.660156 -34.078125 7.546875 -37.851562 Z M 7.546875 -37.851562 "/></g></g></g><g fill="#000000" fill-opacity="1"><g transform="translate(110.905801, 478.050025)"><g><path d="M 29.746094 -0.109375 C 31.746094 -0.109375 33.742188 -0.109375 35.742188 -0.109375 C 40.515625 -0.109375 45.289062 -0.109375 49.949219 -0.109375 C 51.28125 -0.109375 52.613281 -0.109375 53.835938 -0.332031 C 54.167969 -0.445312 54.390625 -0.554688 54.613281 -0.664062 C 54.945312 -0.777344 55.277344 -1.332031 55.277344 -1.664062 C 55.277344 -2.21875 55.054688 -2.773438 54.722656 -3.21875 C 54.390625 -3.664062 54.058594 -3.886719 53.613281 -3.886719 C 52.945312 -3.996094 52.171875 -4.105469 51.503906 -4.105469 C 46.507812 -4.105469 41.515625 -4.105469 36.40625 -4.105469 C 32.410156 -4.105469 28.414062 -4.105469 24.421875 -4.105469 C 23.863281 -4.105469 23.308594 -4.105469 22.753906 -4.21875 C 22.199219 -4.328125 21.3125 -5.105469 21.3125 -5.660156 C 21.199219 -5.992188 21.199219 -6.214844 21.199219 -6.550781 C 21.199219 -13.652344 21.199219 -20.867188 21.199219 -28.082031 C 21.199219 -28.859375 21.199219 -29.746094 21.3125 -30.636719 C 21.644531 -32.300781 21.867188 -33.964844 21.867188 -35.742188 C 21.867188 -35.964844 21.976562 -36.296875 21.976562 -36.628906 C 22.089844 -37.296875 22.644531 -37.851562 23.421875 -37.960938 C 23.753906 -38.074219 24.199219 -38.183594 24.640625 -38.183594 C 27.417969 -38.296875 30.082031 -38.296875 32.855469 -38.183594 C 33.632812 -38.074219 34.519531 -38.074219 35.410156 -38.183594 C 36.628906 -38.40625 37.960938 -38.40625 39.292969 -38.40625 C 40.070312 -38.40625 40.960938 -38.40625 41.847656 -38.40625 C 42.070312 -38.40625 42.402344 -38.515625 42.625 -38.628906 C 43.511719 -38.738281 43.957031 -39.960938 43.511719 -40.625 C 43.179688 -41.292969 42.511719 -41.734375 41.847656 -41.847656 C 41.292969 -41.957031 40.738281 -42.070312 40.070312 -42.070312 C 37.074219 -42.070312 34.078125 -42.179688 31.078125 -42.179688 C 29.082031 -42.179688 27.085938 -42.179688 25.085938 -42.179688 C 24.640625 -42.179688 24.199219 -42.289062 23.753906 -42.289062 C 22.976562 -42.402344 22.089844 -43.179688 22.089844 -43.957031 C 21.976562 -45.621094 21.976562 -47.175781 21.976562 -48.730469 C 22.089844 -55.054688 22.089844 -61.382812 21.976562 -67.597656 C 21.867188 -69.042969 21.867188 -70.484375 21.867188 -71.929688 C 21.867188 -72.371094 21.976562 -72.816406 22.089844 -73.261719 C 22.199219 -73.59375 22.421875 -73.925781 22.867188 -74.148438 C 23.089844 -74.371094 23.421875 -74.480469 23.644531 -74.480469 C 24.640625 -74.59375 25.640625 -74.59375 26.640625 -74.59375 C 34.519531 -74.59375 42.402344 -74.59375 50.28125 -74.59375 C 51.394531 -74.703125 52.613281 -74.703125 53.722656 -74.703125 C 54.167969 -74.8125 54.613281 -75.035156 54.722656 -75.367188 C 55.390625 -76.699219 54.613281 -77.921875 53.503906 -78.03125 C 52.835938 -78.144531 52.058594 -78.144531 51.394531 -78.144531 C 40.515625 -78.253906 29.527344 -78.253906 18.648438 -78.253906 C 16.539062 -78.253906 14.320312 -78.253906 12.210938 -78.144531 C 10.546875 -78.144531 8.769531 -77.8125 7.214844 -77.257812 C 6.4375 -77.035156 5.882812 -76.480469 5.773438 -75.703125 C 5.328125 -72.925781 4.882812 -70.039062 4.882812 -67.15625 C 4.882812 -63.382812 4.882812 -59.496094 4.882812 -55.609375 C 4.882812 -54.167969 4.882812 -52.726562 5.21875 -51.28125 C 5.550781 -49.285156 5.660156 -47.285156 5.660156 -45.289062 C 5.660156 -42.179688 5.660156 -38.960938 5.660156 -35.851562 C 5.660156 -34.742188 5.660156 -33.523438 5.660156 -32.410156 C 5.550781 -30.304688 5.550781 -28.082031 5.105469 -25.972656 C 4.996094 -25.308594 4.996094 -24.53125 4.996094 -23.863281 C 4.882812 -19.867188 4.882812 -15.871094 4.773438 -11.765625 C 4.660156 -8.65625 4.773438 -5.550781 4.21875 -2.332031 C 4.21875 -2.21875 4.21875 -2.109375 4.21875 -1.996094 C 4.105469 -1.222656 4.996094 -0.222656 5.660156 -0.109375 C 6.105469 0 6.550781 0.109375 6.992188 0.109375 C 13.765625 0 20.425781 0.332031 27.195312 -0.109375 C 28.082031 -0.109375 28.859375 -0.109375 29.746094 -0.109375 Z M 9.324219 -11.101562 C 9.324219 -13.429688 9.324219 -15.761719 9.65625 -17.980469 C 9.769531 -18.648438 9.769531 -19.425781 9.769531 -20.089844 C 9.769531 -23.308594 9.988281 -26.417969 10.324219 -29.636719 C 10.433594 -31.300781 10.65625 -32.96875 10.433594 -34.742188 C 10.210938 -37.183594 10.324219 -39.628906 10.324219 -42.070312 C 10.324219 -45.289062 10.210938 -48.617188 9.988281 -51.949219 C 9.769531 -54.390625 9.769531 -56.832031 9.65625 -59.164062 C 9.65625 -62.382812 9.65625 -65.488281 9.65625 -68.710938 C 9.65625 -69.484375 9.769531 -70.375 9.878906 -71.261719 C 9.878906 -71.929688 10.546875 -72.703125 11.210938 -72.703125 C 12.097656 -72.925781 12.875 -73.039062 13.765625 -73.148438 C 14.320312 -73.148438 14.875 -73.039062 15.429688 -72.925781 C 16.09375 -72.816406 16.761719 -72.148438 16.871094 -71.484375 C 16.871094 -70.375 16.984375 -69.152344 16.984375 -68.042969 C 17.09375 -65.488281 17.09375 -62.9375 17.316406 -60.382812 C 17.648438 -58.054688 17.539062 -55.722656 17.316406 -53.503906 C 17.09375 -51.28125 17.09375 -49.171875 17.09375 -47.0625 C 16.984375 -43.402344 16.984375 -39.847656 16.984375 -36.296875 C 16.984375 -34.410156 16.871094 -32.523438 16.429688 -30.746094 C 16.207031 -29.636719 16.207031 -28.414062 16.207031 -27.304688 C 16.207031 -22.421875 16.207031 -17.539062 16.207031 -12.652344 C 16.207031 -11.101562 16.207031 -9.546875 16.207031 -7.992188 C 16.207031 -7.324219 16.09375 -6.769531 16.09375 -6.214844 C 15.984375 -5.550781 15.316406 -4.996094 14.539062 -4.882812 C 13.429688 -4.773438 12.320312 -4.660156 11.210938 -4.882812 C 10.988281 -4.882812 10.878906 -4.882812 10.765625 -4.882812 C 10.324219 -4.996094 9.546875 -5.660156 9.546875 -5.992188 C 9.433594 -6.328125 9.324219 -6.550781 9.324219 -6.882812 C 9.324219 -8.324219 9.324219 -9.65625 9.324219 -11.101562 Z M 9.324219 -11.101562 "/></g></g></g><g fill="#000000" fill-opacity="1"><g transform="translate(166.294802, 478.050025)"><g><path d="M 21.535156 -39.183594 C 21.535156 -44.621094 21.535156 -50.0625 21.535156 -55.5 C 21.421875 -59.941406 21.421875 -64.378906 21.644531 -68.820312 C 21.757812 -70.816406 21.757812 -72.816406 21.644531 -74.8125 C 21.644531 -75.257812 21.644531 -75.703125 21.421875 -76.035156 C 21.199219 -76.8125 20.644531 -77.257812 19.980469 -77.589844 C 19.757812 -77.699219 19.425781 -77.699219 19.203125 -77.699219 C 15.761719 -77.8125 12.320312 -77.8125 8.878906 -77.8125 C 7.769531 -77.699219 6.992188 -77.144531 6.328125 -76.367188 C 5.992188 -75.925781 5.660156 -75.367188 5.4375 -74.8125 C 4.882812 -73.261719 4.550781 -71.59375 4.660156 -69.820312 C 4.660156 -68.820312 4.660156 -67.820312 4.660156 -66.820312 C 4.660156 -65.378906 4.660156 -63.9375 4.996094 -62.492188 C 5.21875 -61.714844 5.21875 -60.828125 5.21875 -59.941406 C 5.21875 -56.164062 5.21875 -52.503906 5.21875 -48.730469 C 5.21875 -47.953125 5.21875 -47.0625 4.996094 -46.175781 C 4.660156 -44.511719 4.660156 -42.734375 4.660156 -41.070312 C 4.660156 -38.074219 4.660156 -35.074219 4.660156 -32.078125 C 4.660156 -26.417969 4.550781 -20.867188 4.550781 -15.316406 C 4.21875 -10.988281 4.996094 -6.660156 5.21875 -2.441406 C 5.21875 -2.21875 5.328125 -2.109375 5.328125 -1.996094 C 5.550781 -1.441406 5.773438 -0.886719 6.328125 -0.664062 C 7.324219 0 8.4375 0.445312 9.546875 0.445312 C 12.320312 0.332031 14.984375 0.332031 17.761719 0.332031 C 18.203125 0.332031 18.535156 0.222656 18.980469 0.109375 C 19.867188 -0.109375 20.535156 -0.554688 20.980469 -1.332031 C 21.199219 -1.886719 21.421875 -2.441406 21.421875 -2.996094 C 21.535156 -4.550781 21.535156 -6.214844 21.535156 -7.769531 C 21.535156 -10.765625 21.421875 -13.765625 21.421875 -16.761719 C 21.421875 -24.199219 21.535156 -31.636719 21.535156 -39.183594 Z M 9.433594 -26.195312 C 9.433594 -31.078125 9.433594 -35.964844 9.433594 -40.738281 C 9.433594 -42.511719 9.546875 -44.179688 9.769531 -45.953125 C 9.769531 -46.84375 9.878906 -47.617188 9.878906 -48.507812 C 9.878906 -53.945312 9.878906 -59.386719 9.546875 -64.824219 C 9.433594 -66.710938 9.546875 -68.597656 9.546875 -70.375 C 9.65625 -71.816406 10.546875 -72.816406 11.988281 -72.925781 C 13.210938 -73.039062 14.320312 -73.148438 15.429688 -72.816406 C 16.09375 -72.703125 16.429688 -72.371094 16.648438 -71.707031 C 16.871094 -71.261719 17.09375 -70.707031 16.984375 -70.039062 C 16.429688 -66.488281 16.648438 -62.9375 16.539062 -59.386719 C 16.539062 -53.945312 16.539062 -48.507812 16.648438 -43.066406 C 16.761719 -32.300781 16.539062 -21.535156 16.539062 -10.765625 C 16.539062 -9.65625 16.539062 -8.4375 16.539062 -7.324219 C 16.539062 -6.882812 16.429688 -6.4375 16.316406 -6.105469 C 16.207031 -5.4375 15.429688 -4.660156 14.875 -4.660156 C 13.542969 -4.550781 12.320312 -4.550781 10.988281 -4.660156 C 10.324219 -4.660156 9.65625 -5.328125 9.546875 -5.992188 C 9.433594 -6.660156 9.433594 -7.4375 9.433594 -8.101562 C 9.433594 -14.097656 9.433594 -20.203125 9.546875 -26.195312 C 9.546875 -26.195312 9.433594 -26.195312 9.433594 -26.195312 Z M 9.433594 -26.195312 "/></g></g></g><g fill="#000000" fill-opacity="1"><g transform="translate(191.824795, 478.050025)"><g><path d="M 22.753906 0.332031 C 28.859375 0.332031 34.078125 0.222656 39.183594 0.222656 C 40.292969 0.222656 41.515625 0.109375 42.625 -0.109375 C 45.066406 -0.445312 47.398438 -1.222656 49.617188 -2.109375 C 51.394531 -2.886719 52.945312 -3.773438 54.390625 -4.996094 C 56.277344 -6.882812 57.71875 -8.992188 58.496094 -11.433594 C 59.605469 -14.429688 60.273438 -17.539062 60.273438 -20.757812 C 60.273438 -23.199219 59.605469 -25.53125 58.828125 -27.859375 C 58.164062 -29.96875 56.941406 -31.636719 55.277344 -33.1875 C 54.390625 -34.078125 53.390625 -34.855469 52.171875 -35.519531 C 50.503906 -36.519531 48.730469 -37.40625 46.84375 -38.296875 C 45.621094 -38.851562 44.289062 -39.40625 42.957031 -40.070312 C 42.734375 -40.183594 42.511719 -40.292969 42.289062 -40.515625 C 42.070312 -40.738281 41.957031 -40.960938 41.734375 -41.179688 C 41.734375 -41.292969 41.957031 -41.402344 42.070312 -41.515625 C 42.511719 -41.734375 42.957031 -42.179688 43.511719 -42.289062 C 45.289062 -43.066406 46.953125 -43.957031 48.617188 -44.734375 C 49.171875 -45.066406 49.839844 -45.511719 50.394531 -45.84375 C 52.726562 -47.175781 54.390625 -49.171875 55.390625 -51.613281 C 56.054688 -53.28125 56.722656 -55.054688 56.722656 -56.941406 C 56.722656 -58.609375 56.722656 -60.160156 56.722656 -61.714844 C 56.832031 -63.160156 56.386719 -64.601562 55.722656 -65.824219 C 54.835938 -67.820312 53.613281 -69.597656 52.058594 -71.039062 C 50.617188 -72.261719 49.171875 -73.480469 47.617188 -74.59375 C 45.511719 -76.035156 43.066406 -76.921875 40.402344 -77.035156 C 39.292969 -77.144531 38.074219 -77.144531 36.964844 -77.144531 C 36.074219 -77.257812 35.1875 -77.144531 34.410156 -77.367188 C 32.410156 -77.8125 30.414062 -77.8125 28.414062 -77.8125 C 25.863281 -77.8125 23.308594 -77.8125 20.644531 -77.367188 C 18.535156 -77.035156 16.429688 -77.035156 14.320312 -77.476562 C 12.542969 -77.8125 10.878906 -77.8125 9.101562 -77.8125 C 8.65625 -77.699219 8.214844 -77.699219 7.882812 -77.589844 C 6.992188 -77.257812 6.328125 -76.921875 5.992188 -75.925781 C 5.660156 -75.035156 5.21875 -74.035156 5.21875 -73.039062 C 5.21875 -70.484375 4.996094 -67.933594 5.660156 -65.378906 C 5.882812 -64.714844 5.992188 -63.9375 5.773438 -63.269531 C 5.21875 -61.382812 5.21875 -59.605469 5.21875 -57.71875 C 5.105469 -48.394531 4.996094 -39.070312 4.882812 -29.746094 C 4.773438 -28.195312 4.773438 -26.527344 4.550781 -24.976562 C 4.328125 -23.863281 4.441406 -22.753906 4.660156 -21.535156 C 5.328125 -18.203125 5.21875 -14.761719 4.773438 -11.320312 C 4.441406 -9.324219 4.328125 -7.324219 4.441406 -5.328125 C 4.441406 -3.886719 4.773438 -2.441406 5.4375 -1.109375 C 5.773438 -0.332031 6.4375 0.222656 7.324219 0.332031 C 8.101562 0.445312 8.769531 0.445312 9.546875 0.445312 C 14.207031 0.445312 18.980469 0.445312 22.753906 0.332031 Z M 21.421875 -22.089844 C 21.535156 -24.421875 21.535156 -27.75 21.421875 -31.078125 C 21.3125 -33.078125 21.421875 -35.074219 21.421875 -37.074219 C 21.421875 -37.851562 22.199219 -38.628906 23.089844 -38.851562 C 23.199219 -38.851562 23.308594 -38.851562 23.53125 -38.851562 C 23.753906 -38.960938 24.085938 -38.960938 24.308594 -38.960938 C 26.308594 -38.960938 28.304688 -38.960938 30.414062 -38.960938 C 31.855469 -38.960938 33.1875 -38.628906 34.519531 -38.074219 C 34.964844 -37.960938 35.296875 -37.738281 35.632812 -37.519531 C 36.296875 -36.964844 36.964844 -36.40625 37.519531 -35.742188 C 39.960938 -32.96875 41.734375 -29.859375 42.734375 -26.417969 C 42.847656 -25.972656 42.957031 -25.53125 42.957031 -25.195312 C 42.957031 -21.867188 42.957031 -18.535156 42.957031 -15.207031 C 42.957031 -14.652344 42.847656 -14.097656 42.625 -13.542969 C 42.070312 -11.765625 41.402344 -10.101562 40.515625 -8.4375 C 39.847656 -7.105469 38.960938 -5.992188 37.851562 -5.105469 C 36.296875 -3.664062 34.519531 -2.886719 32.410156 -2.886719 C 29.414062 -2.886719 26.308594 -2.886719 23.308594 -2.996094 C 23.199219 -2.996094 23.089844 -2.996094 22.867188 -2.996094 C 22.3125 -3.109375 21.535156 -3.773438 21.421875 -4.328125 C 21.3125 -4.773438 21.3125 -5.21875 21.199219 -5.660156 C 21.199219 -7.214844 21.199219 -8.769531 21.199219 -10.324219 C 21.199219 -13.984375 21.3125 -17.539062 21.421875 -22.089844 Z M 21.3125 -48.175781 C 21.535156 -49.949219 21.535156 -51.835938 21.867188 -53.722656 C 22.199219 -56.054688 22.3125 -58.496094 22.3125 -60.9375 C 22.3125 -64.15625 22.3125 -67.265625 22.3125 -70.375 C 22.3125 -71.261719 22.421875 -72.148438 22.421875 -73.039062 C 22.53125 -73.925781 23.421875 -74.925781 24.308594 -75.035156 C 24.863281 -75.148438 25.53125 -75.257812 26.085938 -75.257812 C 27.972656 -75.480469 29.746094 -75.257812 31.636719 -74.8125 C 33.1875 -74.371094 34.519531 -73.59375 35.410156 -72.261719 C 35.632812 -72.039062 35.742188 -71.816406 35.964844 -71.59375 C 38.40625 -68.597656 39.738281 -65.15625 40.515625 -61.492188 C 40.625 -61.050781 40.625 -60.605469 40.847656 -60.273438 C 41.179688 -59.273438 41.179688 -58.273438 41.179688 -57.277344 C 41.179688 -55.945312 41.070312 -54.722656 41.179688 -53.390625 C 41.292969 -51.613281 40.847656 -49.949219 40.402344 -48.285156 C 39.960938 -46.84375 39.183594 -45.730469 37.960938 -44.953125 C 35.964844 -43.621094 33.855469 -42.734375 31.523438 -42.511719 C 30.304688 -42.402344 28.972656 -42.289062 27.75 -42.070312 C 25.972656 -41.847656 24.308594 -42.070312 22.53125 -42.511719 C 22.089844 -42.625 21.535156 -43.289062 21.535156 -43.84375 C 21.421875 -45.289062 21.421875 -46.621094 21.3125 -48.175781 Z M 9.546875 -36.851562 C 9.546875 -38.296875 9.65625 -39.960938 9.65625 -41.515625 C 9.769531 -46.066406 9.878906 -50.617188 10.101562 -55.277344 C 10.101562 -57.496094 10.210938 -59.828125 10.324219 -62.160156 C 10.65625 -64.492188 10.433594 -66.933594 10.101562 -69.375 C 9.988281 -70.152344 9.988281 -70.816406 10.101562 -71.484375 C 10.210938 -72.039062 10.765625 -72.59375 11.320312 -72.703125 C 12.875 -72.925781 14.429688 -72.925781 15.984375 -72.703125 C 16.648438 -72.59375 17.316406 -71.929688 17.316406 -71.261719 C 17.425781 -70.816406 17.425781 -70.375 17.425781 -69.929688 C 17.539062 -64.933594 17.316406 -59.941406 17.203125 -54.835938 C 17.203125 -54.167969 17.09375 -53.390625 16.871094 -52.726562 C 16.539062 -51.171875 16.429688 -49.617188 16.429688 -48.0625 C 16.429688 -42.957031 16.429688 -37.738281 16.429688 -32.632812 C 16.429688 -27.417969 16.429688 -22.3125 16.429688 -17.09375 C 16.429688 -13.984375 16.429688 -10.765625 16.429688 -7.660156 C 16.316406 -7.105469 16.316406 -6.550781 16.207031 -5.992188 C 16.09375 -5.550781 15.539062 -4.882812 14.984375 -4.773438 C 14.761719 -4.660156 14.429688 -4.660156 14.207031 -4.550781 C 13.097656 -4.550781 11.878906 -4.441406 10.765625 -4.773438 C 10.210938 -4.882812 9.433594 -5.660156 9.433594 -6.214844 C 9.214844 -7.4375 9.324219 -8.546875 9.433594 -9.65625 C 9.65625 -12.320312 9.769531 -14.875 9.65625 -17.425781 C 9.65625 -18.871094 9.65625 -20.3125 9.546875 -21.757812 C 9.214844 -25.863281 9.324219 -30.082031 9.433594 -34.1875 C 9.433594 -35.074219 9.546875 -35.851562 9.546875 -36.851562 Z M 55.277344 -20.203125 C 55.054688 -16.429688 54.058594 -13.210938 52.058594 -10.324219 C 50.949219 -8.546875 49.285156 -7.4375 47.285156 -6.882812 C 46.953125 -6.769531 46.730469 -6.769531 46.621094 -7.105469 C 46.507812 -7.4375 46.398438 -7.660156 46.398438 -7.882812 C 46.398438 -8.214844 46.398438 -8.546875 46.507812 -8.769531 C 47.175781 -10.210938 47.398438 -11.765625 47.617188 -13.320312 C 47.730469 -14.207031 47.839844 -14.984375 47.839844 -15.871094 C 47.953125 -18.316406 47.953125 -20.757812 47.839844 -23.199219 C 47.839844 -24.640625 47.617188 -25.972656 47.507812 -27.417969 C 47.398438 -28.414062 47.175781 -29.414062 46.730469 -30.304688 C 46.621094 -30.636719 46.621094 -30.859375 46.507812 -31.191406 C 46.507812 -31.414062 46.621094 -31.746094 46.84375 -31.96875 C 47.0625 -32.078125 47.285156 -32.191406 47.617188 -32.078125 C 48.617188 -31.523438 49.617188 -31.078125 50.617188 -30.414062 C 51.949219 -29.636719 53.058594 -28.414062 53.613281 -26.972656 C 54.277344 -25.53125 54.722656 -23.976562 55.054688 -22.421875 C 55.277344 -21.644531 55.277344 -20.757812 55.277344 -20.203125 Z M 51.835938 -59.164062 C 51.726562 -58.164062 51.726562 -57.386719 51.613281 -56.722656 C 51.28125 -54.167969 50.171875 -52.171875 48.175781 -50.617188 C 47.953125 -50.394531 47.617188 -50.28125 47.398438 -50.171875 C 46.84375 -50.0625 46.175781 -50.394531 46.066406 -50.949219 C 45.953125 -51.394531 45.84375 -51.835938 45.84375 -52.171875 C 45.84375 -53.503906 45.84375 -54.722656 45.730469 -56.054688 C 45.730469 -56.609375 45.730469 -57.164062 45.730469 -57.71875 C 45.84375 -61.050781 45.289062 -64.269531 44.179688 -67.378906 C 43.957031 -67.933594 43.957031 -68.488281 43.84375 -69.042969 C 43.734375 -69.375 43.84375 -69.597656 44.066406 -69.820312 C 44.289062 -69.929688 44.511719 -70.039062 44.84375 -70.039062 C 45.066406 -69.929688 45.398438 -69.820312 45.621094 -69.707031 C 47.730469 -68.488281 49.394531 -66.710938 50.617188 -64.601562 C 50.839844 -64.15625 50.949219 -63.824219 51.171875 -63.382812 C 51.503906 -62.9375 51.613281 -62.382812 51.726562 -61.828125 C 51.726562 -60.828125 51.835938 -59.828125 51.835938 -59.164062 Z M 51.835938 -59.164062 "/></g></g><g transform="translate(254.761795, 478.050025)"><g><path d="M 42.957031 -77.8125 C 41.625 -77.8125 40.402344 -77.8125 39.070312 -77.8125 C 38.296875 -77.8125 37.628906 -77.8125 36.964844 -77.589844 C 35.519531 -77.257812 34.078125 -77.144531 32.632812 -77.035156 C 31.523438 -77.035156 30.414062 -76.8125 29.304688 -76.480469 C 26.863281 -75.925781 24.640625 -75.035156 22.421875 -73.925781 C 19.757812 -72.703125 17.316406 -70.816406 15.097656 -68.820312 C 14.875 -68.488281 14.539062 -68.152344 14.207031 -67.820312 C 12.097656 -64.933594 9.878906 -62.160156 8.4375 -58.828125 C 8.101562 -57.832031 7.546875 -56.941406 7.105469 -56.054688 C 5.21875 -52.390625 4.105469 -48.394531 3.550781 -44.179688 C 3.441406 -42.625 3.550781 -41.070312 3.328125 -39.515625 C 2.996094 -36.296875 3.664062 -33.1875 4.105469 -30.082031 C 4.660156 -28.527344 4.773438 -26.75 5.4375 -25.085938 C 6.328125 -22.753906 7.4375 -20.425781 8.65625 -18.09375 C 8.992188 -17.539062 9.433594 -16.984375 9.878906 -16.429688 C 11.210938 -14.875 12.542969 -13.429688 14.097656 -12.097656 C 15.316406 -11.101562 16.648438 -10.101562 17.761719 -9.101562 C 19.09375 -7.769531 20.644531 -6.769531 22.199219 -5.660156 C 25.195312 -3.773438 28.414062 -2.109375 31.746094 -0.886719 C 33.410156 -0.222656 34.964844 0.332031 36.742188 0.445312 C 37.296875 0.445312 37.851562 0.554688 38.40625 0.664062 C 40.515625 1.222656 42.734375 1.109375 44.84375 0.777344 C 45.84375 0.664062 46.84375 0.445312 47.839844 0.445312 C 49.394531 0.332031 50.949219 -0.109375 52.503906 -0.445312 C 56.054688 -1.222656 59.164062 -2.773438 62.160156 -4.773438 C 66.15625 -7.4375 69.484375 -10.878906 72.371094 -14.539062 C 73.816406 -16.429688 75.035156 -18.316406 75.8125 -20.535156 C 76.699219 -22.644531 77.476562 -24.753906 78.03125 -26.972656 C 78.144531 -27.527344 78.476562 -28.082031 78.476562 -28.636719 C 78.699219 -30.636719 78.921875 -32.632812 79.476562 -34.632812 C 79.585938 -35.074219 79.476562 -35.742188 79.476562 -36.296875 C 79.585938 -37.628906 79.585938 -38.851562 79.585938 -40.183594 C 79.585938 -42.179688 79.585938 -44.179688 78.921875 -46.175781 C 78.808594 -46.398438 78.808594 -46.730469 78.808594 -46.953125 C 78.144531 -51.171875 76.699219 -55.054688 74.371094 -58.496094 C 73.148438 -60.496094 71.816406 -62.382812 70.484375 -64.15625 C 69.484375 -65.710938 68.152344 -67.15625 66.820312 -68.375 C 65.710938 -69.265625 64.601562 -70.261719 63.601562 -71.261719 C 62.160156 -72.703125 60.496094 -73.816406 58.71875 -74.703125 C 57.832031 -75.148438 56.941406 -75.589844 56.054688 -76.035156 C 54.722656 -76.589844 53.390625 -77.144531 51.949219 -77.144531 C 51.058594 -77.144531 50.171875 -77.257812 49.394531 -77.476562 C 48.175781 -77.699219 47.0625 -77.8125 45.953125 -77.8125 C 44.953125 -77.8125 43.957031 -77.8125 42.957031 -77.8125 Z M 62.492188 -37.074219 C 62.492188 -35.851562 62.382812 -34.519531 62.382812 -33.1875 C 62.382812 -31.078125 62.269531 -28.972656 61.605469 -26.863281 C 61.273438 -23.863281 60.273438 -20.980469 59.605469 -18.09375 C 59.386719 -16.984375 58.941406 -15.871094 58.386719 -14.875 C 57.386719 -13.097656 56.5 -11.320312 55.390625 -9.65625 C 54.945312 -8.769531 54.277344 -7.992188 53.613281 -7.214844 C 52.613281 -5.992188 51.394531 -5.105469 49.839844 -4.550781 C 48.730469 -4.21875 47.617188 -3.886719 46.507812 -3.773438 C 45.730469 -3.664062 45.066406 -3.664062 44.289062 -3.550781 C 43.289062 -3.441406 42.289062 -3.441406 41.292969 -3.550781 C 40.738281 -3.664062 40.183594 -3.664062 39.628906 -3.773438 C 36.851562 -4.105469 34.410156 -5.21875 32.191406 -6.882812 C 31.078125 -7.769531 30.082031 -8.878906 28.972656 -9.769531 C 27.527344 -11.101562 26.308594 -12.765625 25.640625 -14.652344 C 25.53125 -14.761719 25.53125 -14.984375 25.417969 -15.097656 C 23.644531 -19.203125 23.644531 -19.203125 22.753906 -23.644531 C 22.753906 -23.976562 22.753906 -24.199219 22.644531 -24.53125 C 21.199219 -31.414062 21.3125 -32.410156 21.757812 -40.292969 C 21.757812 -40.847656 21.867188 -41.402344 21.867188 -42.070312 C 21.976562 -45.730469 22.753906 -49.394531 23.308594 -53.058594 C 23.644531 -54.835938 24.085938 -56.5 24.640625 -58.054688 C 25.195312 -60.160156 25.972656 -62.160156 26.863281 -64.046875 C 28.082031 -66.601562 29.746094 -68.710938 31.855469 -70.484375 C 32.855469 -71.371094 33.855469 -72.148438 34.964844 -72.816406 C 36.074219 -73.480469 37.296875 -73.925781 38.628906 -73.925781 C 40.738281 -73.925781 42.957031 -73.703125 45.066406 -73.261719 C 47.730469 -72.703125 50.171875 -71.484375 52.390625 -69.929688 C 52.835938 -69.597656 53.28125 -69.152344 53.613281 -68.710938 C 55.945312 -65.933594 57.71875 -62.824219 58.941406 -59.386719 C 60.050781 -56.277344 60.71875 -53.058594 61.382812 -49.839844 C 61.492188 -49.507812 61.492188 -49.0625 61.605469 -48.617188 C 61.828125 -47.507812 62.269531 -46.398438 62.382812 -45.289062 C 62.382812 -43.84375 62.492188 -42.402344 62.605469 -40.960938 C 62.605469 -39.628906 62.605469 -38.40625 62.605469 -37.074219 C 62.605469 -37.074219 62.605469 -37.074219 62.492188 -37.074219 Z M 8.101562 -38.851562 C 7.882812 -42.625 9.546875 -49.0625 11.210938 -52.613281 C 11.988281 -54.167969 12.652344 -55.722656 13.429688 -57.277344 C 14.875 -60.160156 16.761719 -62.9375 18.980469 -65.378906 C 19.425781 -65.933594 20.089844 -66.265625 20.757812 -66.601562 C 20.980469 -66.710938 21.757812 -66.265625 21.757812 -65.933594 C 21.757812 -65.824219 21.757812 -65.710938 21.757812 -65.488281 C 20.980469 -63.601562 20.203125 -61.492188 19.648438 -59.496094 C 19.09375 -57.386719 18.425781 -55.390625 18.316406 -53.167969 C 18.316406 -52.726562 18.316406 -52.28125 18.09375 -51.949219 C 17.539062 -50.394531 17.539062 -48.839844 17.539062 -47.285156 C 17.539062 -46.398438 17.539062 -45.511719 17.425781 -44.734375 C 17.425781 -44.179688 17.316406 -43.511719 17.203125 -42.957031 C 16.761719 -41.625 16.761719 -40.183594 16.761719 -38.738281 C 16.761719 -35.851562 16.761719 -33.078125 16.761719 -30.191406 C 16.761719 -29.414062 16.761719 -28.75 16.871094 -28.082031 C 17.203125 -26.640625 17.425781 -25.195312 17.648438 -23.863281 C 17.761719 -22.53125 18.203125 -21.3125 18.316406 -20.089844 C 18.535156 -19.09375 18.980469 -18.09375 19.09375 -17.09375 C 19.203125 -16.761719 19.203125 -16.316406 19.203125 -15.871094 C 19.203125 -15.761719 19.09375 -15.539062 18.980469 -15.539062 C 18.871094 -15.316406 18.535156 -15.316406 18.316406 -15.429688 C 16.207031 -16.648438 14.539062 -18.203125 13.429688 -20.203125 C 11.765625 -23.089844 10.324219 -25.972656 9.433594 -29.191406 C 9.214844 -29.859375 9.101562 -30.523438 8.992188 -31.300781 C 8.878906 -31.855469 8.878906 -32.410156 8.769531 -32.96875 C 8.101562 -34.964844 8.101562 -36.964844 8.101562 -38.851562 Z M 74.703125 -39.070312 C 74.703125 -35.519531 73.925781 -30.859375 72.925781 -27.527344 C 72.703125 -26.863281 72.484375 -26.085938 72.261719 -25.417969 C 70.484375 -20.535156 69.265625 -18.425781 65.824219 -14.429688 C 65.601562 -14.097656 65.269531 -13.875 64.824219 -13.652344 C 64.601562 -13.429688 64.269531 -13.542969 64.15625 -13.765625 C 64.046875 -13.875 63.9375 -14.097656 63.9375 -14.207031 C 63.9375 -14.429688 63.9375 -14.761719 64.046875 -14.984375 C 64.601562 -16.761719 64.933594 -18.648438 65.378906 -20.425781 C 66.265625 -23.421875 66.601562 -26.527344 67.15625 -29.636719 C 67.265625 -30.082031 67.265625 -30.523438 67.265625 -30.96875 C 67.378906 -35.1875 67.488281 -39.515625 67.378906 -43.84375 C 67.378906 -45.289062 67.265625 -46.621094 66.933594 -48.0625 C 66.488281 -49.726562 66.15625 -51.394531 65.824219 -53.058594 C 65.15625 -56.164062 64.492188 -59.273438 63.382812 -62.160156 C 63.269531 -62.605469 63.269531 -63.046875 63.160156 -63.492188 C 63.160156 -63.601562 63.269531 -63.714844 63.382812 -63.824219 C 63.492188 -64.046875 63.824219 -64.046875 64.046875 -63.9375 C 64.492188 -63.601562 64.714844 -63.382812 65.046875 -63.046875 C 66.710938 -61.050781 68.152344 -58.941406 69.484375 -56.722656 C 72.148438 -52.726562 73.703125 -48.285156 74.371094 -43.621094 C 74.59375 -42.070312 74.8125 -40.515625 74.703125 -39.070312 Z M 74.703125 -39.070312 "/></g></g></g><g fill="#000000" fill-opacity="1"><g transform="translate(336.790773, 478.050025)"><g/></g></g><g fill="#000000" fill-opacity="1"><g transform="translate(358.990776, 478.050025)"><g><path d="M 22.753906 0.332031 C 28.859375 0.332031 34.078125 0.222656 39.183594 0.222656 C 40.292969 0.222656 41.515625 0.109375 42.625 -0.109375 C 45.066406 -0.445312 47.398438 -1.222656 49.617188 -2.109375 C 51.394531 -2.886719 52.945312 -3.773438 54.390625 -4.996094 C 56.277344 -6.882812 57.71875 -8.992188 58.496094 -11.433594 C 59.605469 -14.429688 60.273438 -17.539062 60.273438 -20.757812 C 60.273438 -23.199219 59.605469 -25.53125 58.828125 -27.859375 C 58.164062 -29.96875 56.941406 -31.636719 55.277344 -33.1875 C 54.390625 -34.078125 53.390625 -34.855469 52.171875 -35.519531 C 50.503906 -36.519531 48.730469 -37.40625 46.84375 -38.296875 C 45.621094 -38.851562 44.289062 -39.40625 42.957031 -40.070312 C 42.734375 -40.183594 42.511719 -40.292969 42.289062 -40.515625 C 42.070312 -40.738281 41.957031 -40.960938 41.734375 -41.179688 C 41.734375 -41.292969 41.957031 -41.402344 42.070312 -41.515625 C 42.511719 -41.734375 42.957031 -42.179688 43.511719 -42.289062 C 45.289062 -43.066406 46.953125 -43.957031 48.617188 -44.734375 C 49.171875 -45.066406 49.839844 -45.511719 50.394531 -45.84375 C 52.726562 -47.175781 54.390625 -49.171875 55.390625 -51.613281 C 56.054688 -53.28125 56.722656 -55.054688 56.722656 -56.941406 C 56.722656 -58.609375 56.722656 -60.160156 56.722656 -61.714844 C 56.832031 -63.160156 56.386719 -64.601562 55.722656 -65.824219 C 54.835938 -67.820312 53.613281 -69.597656 52.058594 -71.039062 C 50.617188 -72.261719 49.171875 -73.480469 47.617188 -74.59375 C 45.511719 -76.035156 43.066406 -76.921875 40.402344 -77.035156 C 39.292969 -77.144531 38.074219 -77.144531 36.964844 -77.144531 C 36.074219 -77.257812 35.1875 -77.144531 34.410156 -77.367188 C 32.410156 -77.8125 30.414062 -77.8125 28.414062 -77.8125 C 25.863281 -77.8125 23.308594 -77.8125 20.644531 -77.367188 C 18.535156 -77.035156 16.429688 -77.035156 14.320312 -77.476562 C 12.542969 -77.8125 10.878906 -77.8125 9.101562 -77.8125 C 8.65625 -77.699219 8.214844 -77.699219 7.882812 -77.589844 C 6.992188 -77.257812 6.328125 -76.921875 5.992188 -75.925781 C 5.660156 -75.035156 5.21875 -74.035156 5.21875 -73.039062 C 5.21875 -70.484375 4.996094 -67.933594 5.660156 -65.378906 C 5.882812 -64.714844 5.992188 -63.9375 5.773438 -63.269531 C 5.21875 -61.382812 5.21875 -59.605469 5.21875 -57.71875 C 5.105469 -48.394531 4.996094 -39.070312 4.882812 -29.746094 C 4.773438 -28.195312 4.773438 -26.527344 4.550781 -24.976562 C 4.328125 -23.863281 4.441406 -22.753906 4.660156 -21.535156 C 5.328125 -18.203125 5.21875 -14.761719 4.773438 -11.320312 C 4.441406 -9.324219 4.328125 -7.324219 4.441406 -5.328125 C 4.441406 -3.886719 4.773438 -2.441406 5.4375 -1.109375 C 5.773438 -0.332031 6.4375 0.222656 7.324219 0.332031 C 8.101562 0.445312 8.769531 0.445312 9.546875 0.445312 C 14.207031 0.445312 18.980469 0.445312 22.753906 0.332031 Z M 21.421875 -22.089844 C 21.535156 -24.421875 21.535156 -27.75 21.421875 -31.078125 C 21.3125 -33.078125 21.421875 -35.074219 21.421875 -37.074219 C 21.421875 -37.851562 22.199219 -38.628906 23.089844 -38.851562 C 23.199219 -38.851562 23.308594 -38.851562 23.53125 -38.851562 C 23.753906 -38.960938 24.085938 -38.960938 24.308594 -38.960938 C 26.308594 -38.960938 28.304688 -38.960938 30.414062 -38.960938 C 31.855469 -38.960938 33.1875 -38.628906 34.519531 -38.074219 C 34.964844 -37.960938 35.296875 -37.738281 35.632812 -37.519531 C 36.296875 -36.964844 36.964844 -36.40625 37.519531 -35.742188 C 39.960938 -32.96875 41.734375 -29.859375 42.734375 -26.417969 C 42.847656 -25.972656 42.957031 -25.53125 42.957031 -25.195312 C 42.957031 -21.867188 42.957031 -18.535156 42.957031 -15.207031 C 42.957031 -14.652344 42.847656 -14.097656 42.625 -13.542969 C 42.070312 -11.765625 41.402344 -10.101562 40.515625 -8.4375 C 39.847656 -7.105469 38.960938 -5.992188 37.851562 -5.105469 C 36.296875 -3.664062 34.519531 -2.886719 32.410156 -2.886719 C 29.414062 -2.886719 26.308594 -2.886719 23.308594 -2.996094 C 23.199219 -2.996094 23.089844 -2.996094 22.867188 -2.996094 C 22.3125 -3.109375 21.535156 -3.773438 21.421875 -4.328125 C 21.3125 -4.773438 21.3125 -5.21875 21.199219 -5.660156 C 21.199219 -7.214844 21.199219 -8.769531 21.199219 -10.324219 C 21.199219 -13.984375 21.3125 -17.539062 21.421875 -22.089844 Z M 21.3125 -48.175781 C 21.535156 -49.949219 21.535156 -51.835938 21.867188 -53.722656 C 22.199219 -56.054688 22.3125 -58.496094 22.3125 -60.9375 C 22.3125 -64.15625 22.3125 -67.265625 22.3125 -70.375 C 22.3125 -71.261719 22.421875 -72.148438 22.421875 -73.039062 C 22.53125 -73.925781 23.421875 -74.925781 24.308594 -75.035156 C 24.863281 -75.148438 25.53125 -75.257812 26.085938 -75.257812 C 27.972656 -75.480469 29.746094 -75.257812 31.636719 -74.8125 C 33.1875 -74.371094 34.519531 -73.59375 35.410156 -72.261719 C 35.632812 -72.039062 35.742188 -71.816406 35.964844 -71.59375 C 38.40625 -68.597656 39.738281 -65.15625 40.515625 -61.492188 C 40.625 -61.050781 40.625 -60.605469 40.847656 -60.273438 C 41.179688 -59.273438 41.179688 -58.273438 41.179688 -57.277344 C 41.179688 -55.945312 41.070312 -54.722656 41.179688 -53.390625 C 41.292969 -51.613281 40.847656 -49.949219 40.402344 -48.285156 C 39.960938 -46.84375 39.183594 -45.730469 37.960938 -44.953125 C 35.964844 -43.621094 33.855469 -42.734375 31.523438 -42.511719 C 30.304688 -42.402344 28.972656 -42.289062 27.75 -42.070312 C 25.972656 -41.847656 24.308594 -42.070312 22.53125 -42.511719 C 22.089844 -42.625 21.535156 -43.289062 21.535156 -43.84375 C 21.421875 -45.289062 21.421875 -46.621094 21.3125 -48.175781 Z M 9.546875 -36.851562 C 9.546875 -38.296875 9.65625 -39.960938 9.65625 -41.515625 C 9.769531 -46.066406 9.878906 -50.617188 10.101562 -55.277344 C 10.101562 -57.496094 10.210938 -59.828125 10.324219 -62.160156 C 10.65625 -64.492188 10.433594 -66.933594 10.101562 -69.375 C 9.988281 -70.152344 9.988281 -70.816406 10.101562 -71.484375 C 10.210938 -72.039062 10.765625 -72.59375 11.320312 -72.703125 C 12.875 -72.925781 14.429688 -72.925781 15.984375 -72.703125 C 16.648438 -72.59375 17.316406 -71.929688 17.316406 -71.261719 C 17.425781 -70.816406 17.425781 -70.375 17.425781 -69.929688 C 17.539062 -64.933594 17.316406 -59.941406 17.203125 -54.835938 C 17.203125 -54.167969 17.09375 -53.390625 16.871094 -52.726562 C 16.539062 -51.171875 16.429688 -49.617188 16.429688 -48.0625 C 16.429688 -42.957031 16.429688 -37.738281 16.429688 -32.632812 C 16.429688 -27.417969 16.429688 -22.3125 16.429688 -17.09375 C 16.429688 -13.984375 16.429688 -10.765625 16.429688 -7.660156 C 16.316406 -7.105469 16.316406 -6.550781 16.207031 -5.992188 C 16.09375 -5.550781 15.539062 -4.882812 14.984375 -4.773438 C 14.761719 -4.660156 14.429688 -4.660156 14.207031 -4.550781 C 13.097656 -4.550781 11.878906 -4.441406 10.765625 -4.773438 C 10.210938 -4.882812 9.433594 -5.660156 9.433594 -6.214844 C 9.214844 -7.4375 9.324219 -8.546875 9.433594 -9.65625 C 9.65625 -12.320312 9.769531 -14.875 9.65625 -17.425781 C 9.65625 -18.871094 9.65625 -20.3125 9.546875 -21.757812 C 9.214844 -25.863281 9.324219 -30.082031 9.433594 -34.1875 C 9.433594 -35.074219 9.546875 -35.851562 9.546875 -36.851562 Z M 55.277344 -20.203125 C 55.054688 -16.429688 54.058594 -13.210938 52.058594 -10.324219 C 50.949219 -8.546875 49.285156 -7.4375 47.285156 -6.882812 C 46.953125 -6.769531 46.730469 -6.769531 46.621094 -7.105469 C 46.507812 -7.4375 46.398438 -7.660156 46.398438 -7.882812 C 46.398438 -8.214844 46.398438 -8.546875 46.507812 -8.769531 C 47.175781 -10.210938 47.398438 -11.765625 47.617188 -13.320312 C 47.730469 -14.207031 47.839844 -14.984375 47.839844 -15.871094 C 47.953125 -18.316406 47.953125 -20.757812 47.839844 -23.199219 C 47.839844 -24.640625 47.617188 -25.972656 47.507812 -27.417969 C 47.398438 -28.414062 47.175781 -29.414062 46.730469 -30.304688 C 46.621094 -30.636719 46.621094 -30.859375 46.507812 -31.191406 C 46.507812 -31.414062 46.621094 -31.746094 46.84375 -31.96875 C 47.0625 -32.078125 47.285156 -32.191406 47.617188 -32.078125 C 48.617188 -31.523438 49.617188 -31.078125 50.617188 -30.414062 C 51.949219 -29.636719 53.058594 -28.414062 53.613281 -26.972656 C 54.277344 -25.53125 54.722656 -23.976562 55.054688 -22.421875 C 55.277344 -21.644531 55.277344 -20.757812 55.277344 -20.203125 Z M 51.835938 -59.164062 C 51.726562 -58.164062 51.726562 -57.386719 51.613281 -56.722656 C 51.28125 -54.167969 50.171875 -52.171875 48.175781 -50.617188 C 47.953125 -50.394531 47.617188 -50.28125 47.398438 -50.171875 C 46.84375 -50.0625 46.175781 -50.394531 46.066406 -50.949219 C 45.953125 -51.394531 45.84375 -51.835938 45.84375 -52.171875 C 45.84375 -53.503906 45.84375 -54.722656 45.730469 -56.054688 C 45.730469 -56.609375 45.730469 -57.164062 45.730469 -57.71875 C 45.84375 -61.050781 45.289062 -64.269531 44.179688 -67.378906 C 43.957031 -67.933594 43.957031 -68.488281 43.84375 -69.042969 C 43.734375 -69.375 43.84375 -69.597656 44.066406 -69.820312 C 44.289062 -69.929688 44.511719 -70.039062 44.84375 -70.039062 C 45.066406 -69.929688 45.398438 -69.820312 45.621094 -69.707031 C 47.730469 -68.488281 49.394531 -66.710938 50.617188 -64.601562 C 50.839844 -64.15625 50.949219 -63.824219 51.171875 -63.382812 C 51.503906 -62.9375 51.613281 -62.382812 51.726562 -61.828125 C 51.726562 -60.828125 51.835938 -59.828125 51.835938 -59.164062 Z M 51.835938 -59.164062 "/></g></g></g><g fill="#000000" fill-opacity="1"><g transform="translate(421.927762, 478.050025)"><g><path d="M 21.644531 -35.632812 C 21.644531 -49.394531 21.644531 -59.050781 21.644531 -68.597656 C 21.644531 -70.152344 21.535156 -71.816406 21.421875 -73.371094 C 21.3125 -74.480469 20.867188 -75.589844 20.203125 -76.480469 C 19.535156 -77.257812 18.648438 -77.8125 17.648438 -77.921875 C 17.316406 -77.921875 16.984375 -77.921875 16.761719 -77.921875 C 13.984375 -77.921875 11.320312 -77.921875 8.546875 -77.921875 C 8.324219 -77.921875 7.992188 -77.921875 7.769531 -77.8125 C 6.550781 -77.699219 5.328125 -76.480469 5.105469 -75.367188 C 5.105469 -74.59375 4.996094 -73.925781 4.996094 -73.148438 C 4.996094 -72.039062 4.996094 -70.929688 5.105469 -69.707031 C 5.21875 -64.15625 5.4375 -58.609375 5.328125 -52.945312 C 5.328125 -47.285156 5.21875 -41.515625 5.21875 -35.742188 C 5.21875 -28.195312 5.105469 -20.644531 4.996094 -12.988281 C 4.882812 -11.320312 4.882812 -9.546875 4.660156 -7.882812 C 4.441406 -6.4375 4.441406 -4.996094 4.328125 -3.550781 C 4.328125 -2.996094 4.441406 -2.441406 4.550781 -1.886719 C 4.660156 -1.109375 5.105469 -0.554688 5.773438 -0.222656 C 6.105469 0 6.550781 0.222656 6.882812 0.222656 C 7.769531 0.332031 8.65625 0.332031 9.546875 0.332031 C 14.652344 0.332031 19.867188 0.332031 24.976562 0.222656 C 30.414062 0.109375 35.851562 0.222656 41.292969 0.222656 C 42.625 0.222656 43.84375 0.222656 45.175781 0 C 47.285156 -0.332031 49.394531 -0.445312 51.613281 -0.554688 C 52.28125 -0.554688 53.058594 -0.554688 53.722656 -0.664062 C 54.277344 -0.777344 54.835938 -1 55.277344 -1.222656 C 56.164062 -1.886719 56.832031 -2.664062 56.722656 -3.773438 C 56.722656 -4.105469 56.386719 -4.660156 56.054688 -4.773438 C 55.832031 -4.773438 55.5 -4.882812 55.277344 -4.882812 C 53.390625 -4.773438 51.503906 -4.550781 49.726562 -4.441406 C 47.730469 -3.773438 45.730469 -3.886719 43.734375 -3.773438 C 42.289062 -3.773438 40.847656 -3.773438 39.40625 -3.773438 C 34.078125 -3.550781 28.859375 -4.105469 23.53125 -4.660156 C 22.753906 -4.773438 22.199219 -5.21875 21.867188 -5.882812 C 21.757812 -6.105469 21.644531 -6.4375 21.644531 -6.660156 C 21.644531 -7.992188 21.535156 -9.324219 21.535156 -10.546875 C 21.535156 -20.3125 21.644531 -30.082031 21.644531 -35.632812 Z M 17.09375 -38.628906 C 16.984375 -31.078125 16.871094 -23.421875 16.761719 -15.871094 C 16.761719 -13.320312 16.761719 -10.65625 16.761719 -8.101562 C 16.761719 -7.4375 16.648438 -6.660156 16.429688 -5.992188 C 16.316406 -5.4375 15.539062 -4.660156 14.984375 -4.660156 C 13.652344 -4.550781 12.320312 -4.441406 11.101562 -4.773438 C 10.65625 -4.773438 9.769531 -5.660156 9.65625 -6.214844 C 9.65625 -6.328125 9.546875 -6.550781 9.546875 -6.660156 C 9.546875 -7.105469 9.546875 -7.4375 9.546875 -7.882812 C 9.546875 -17.316406 9.546875 -26.863281 9.65625 -36.296875 C 9.65625 -37.296875 9.65625 -38.296875 9.878906 -39.292969 C 10.210938 -40.515625 10.210938 -41.847656 10.210938 -43.066406 C 10.210938 -48.949219 10.210938 -54.835938 10.324219 -60.71875 C 10.324219 -62.160156 10.324219 -63.601562 9.878906 -64.933594 C 9.65625 -65.378906 9.65625 -65.824219 9.65625 -66.265625 C 9.546875 -67.820312 9.546875 -69.375 9.65625 -70.929688 C 9.769531 -71.816406 10.433594 -72.59375 11.210938 -72.816406 C 12.320312 -73.148438 13.429688 -73.261719 14.652344 -73.039062 C 16.207031 -72.59375 16.871094 -71.929688 16.984375 -70.375 C 16.984375 -69.265625 16.984375 -68.152344 16.984375 -66.933594 C 16.984375 -57.496094 16.984375 -48.0625 16.984375 -38.628906 C 16.984375 -38.628906 16.984375 -38.628906 17.09375 -38.628906 Z M 17.09375 -38.628906 "/></g></g></g><g fill="#000000" fill-opacity="1"><g transform="translate(478.315775, 478.050025)"><g><path d="M 63.046875 0.332031 C 63.046875 0.332031 63.046875 0.222656 63.046875 0.222656 C 64.824219 0.222656 66.488281 0.222656 68.265625 0.222656 C 68.820312 0.109375 69.375 0 69.929688 0 C 70.816406 -0.222656 71.484375 -1.222656 71.152344 -1.996094 C 70.929688 -2.664062 70.707031 -3.328125 70.484375 -3.996094 C 68.820312 -7.992188 67.15625 -11.878906 66.046875 -16.09375 C 64.269531 -20.425781 62.714844 -24.976562 60.605469 -29.191406 C 59.828125 -30.636719 59.164062 -31.96875 58.609375 -33.523438 C 57.609375 -36.1875 56.609375 -38.851562 55.832031 -41.625 C 54.945312 -44.734375 53.945312 -47.953125 52.613281 -50.949219 C 50.617188 -55.5 48.839844 -60.273438 47.175781 -64.933594 C 46.175781 -67.933594 44.84375 -70.816406 43.621094 -73.703125 C 43.289062 -74.371094 42.957031 -75.035156 42.511719 -75.589844 C 42.070312 -76.257812 41.402344 -76.8125 40.515625 -77.035156 C 36.40625 -77.921875 32.300781 -78.03125 28.082031 -77.921875 C 27.75 -77.921875 27.527344 -77.8125 27.195312 -77.699219 C 26.972656 -77.589844 26.75 -77.476562 26.527344 -77.257812 C 26.195312 -77.035156 25.863281 -76.699219 25.753906 -76.257812 C 24.753906 -74.371094 23.863281 -72.371094 23.199219 -70.375 C 22.421875 -67.597656 21.644531 -64.824219 20.980469 -62.050781 C 20.203125 -59.050781 19.3125 -56.054688 18.316406 -53.058594 C 17.761719 -51.503906 17.316406 -50.0625 16.871094 -48.507812 C 16.207031 -45.84375 15.316406 -43.289062 14.652344 -40.625 C 13.984375 -38.074219 13.097656 -35.519531 12.320312 -32.855469 C 11.320312 -28.636719 9.878906 -24.640625 8.546875 -20.535156 C 7.546875 -17.539062 6.550781 -14.539062 5.550781 -11.542969 C 4.550781 -8.4375 3.664062 -5.21875 2.554688 -2.21875 C 2.332031 -1.777344 2.332031 -1.332031 2.21875 -0.886719 C 2.21875 -0.777344 2.332031 -0.664062 2.441406 -0.554688 C 2.664062 -0.109375 2.886719 0.109375 3.328125 0.222656 C 4.550781 0.445312 5.660156 0.445312 6.769531 0.222656 C 7.324219 0.109375 7.882812 -0.109375 8.214844 -0.664062 C 8.65625 -1.222656 8.992188 -1.886719 9.214844 -2.554688 C 9.546875 -3.441406 9.769531 -4.441406 10.101562 -5.4375 C 10.878906 -7.660156 11.542969 -9.988281 12.097656 -12.433594 C 12.765625 -15.539062 13.875 -18.425781 14.875 -21.421875 C 15.316406 -22.644531 16.207031 -23.308594 17.425781 -23.421875 C 18.757812 -23.53125 19.980469 -23.53125 21.3125 -23.53125 C 23.976562 -23.644531 26.75 -23.644531 29.414062 -24.199219 C 30.414062 -24.308594 31.414062 -24.308594 32.410156 -24.308594 C 36.1875 -24.421875 39.847656 -24.421875 43.621094 -24.421875 C 44.066406 -24.421875 44.511719 -24.421875 44.953125 -24.421875 C 45.511719 -24.308594 45.953125 -24.085938 46.398438 -23.53125 C 46.730469 -23.089844 47.0625 -22.644531 47.285156 -22.089844 C 47.730469 -20.867188 48.285156 -19.757812 48.730469 -18.535156 C 49.171875 -17.09375 49.726562 -15.539062 50.171875 -13.984375 C 50.617188 -12.097656 51.171875 -10.210938 51.835938 -8.214844 C 52.390625 -6.660156 52.945312 -4.996094 53.390625 -3.328125 C 53.613281 -2.664062 53.945312 -1.996094 54.277344 -1.332031 C 54.5 -0.664062 55.054688 -0.222656 55.832031 0 C 56.386719 0.109375 56.941406 0.222656 57.496094 0.332031 C 59.386719 0.332031 61.160156 0.332031 63.046875 0.332031 Z M 28.195312 -27.75 C 25.308594 -27.75 22.53125 -27.75 19.867188 -27.75 C 19.3125 -27.75 18.757812 -27.859375 18.203125 -27.972656 C 17.871094 -28.082031 17.648438 -28.195312 17.425781 -28.414062 C 17.316406 -28.636719 17.316406 -28.972656 17.316406 -29.304688 C 17.425781 -29.636719 17.539062 -30.082031 17.648438 -30.523438 C 18.425781 -32.632812 19.09375 -34.855469 19.648438 -37.074219 C 21.421875 -43.734375 21.3125 -43.289062 23.199219 -48.949219 C 24.976562 -54.058594 26.640625 -59.273438 28.304688 -64.378906 C 28.414062 -64.714844 28.527344 -64.933594 28.636719 -65.15625 C 28.75 -65.269531 28.859375 -65.378906 28.972656 -65.488281 C 29.304688 -65.488281 29.527344 -65.378906 29.746094 -65.15625 C 30.191406 -64.714844 30.414062 -63.9375 30.636719 -63.269531 C 31.078125 -62.160156 31.414062 -60.828125 31.855469 -59.605469 C 32.410156 -57.386719 33.300781 -55.277344 34.1875 -53.28125 C 36.296875 -48.839844 38.183594 -44.398438 40.183594 -39.960938 C 40.402344 -39.515625 40.515625 -39.183594 40.738281 -38.738281 C 41.734375 -35.964844 42.625 -33.078125 43.84375 -30.304688 C 43.84375 -30.191406 43.84375 -29.96875 43.84375 -29.859375 C 43.957031 -29.414062 43.511719 -28.75 42.957031 -28.636719 C 37.960938 -28.304688 33.078125 -27.640625 28.195312 -27.75 Z M 61.273438 -4.441406 C 60.828125 -4.550781 60.273438 -4.550781 59.71875 -4.660156 C 59.273438 -4.773438 58.941406 -5.105469 58.71875 -5.4375 C 58.386719 -6.214844 57.941406 -6.992188 57.71875 -7.882812 C 57.164062 -10.546875 55.945312 -12.988281 55.277344 -15.652344 C 54.5 -18.203125 53.503906 -20.757812 52.503906 -23.308594 C 52.171875 -24.199219 51.835938 -25.195312 51.503906 -26.085938 C 50.839844 -27.972656 50.171875 -29.859375 49.171875 -31.636719 C 48.0625 -33.523438 47.285156 -35.519531 46.621094 -37.519531 C 46.066406 -39.628906 45.175781 -41.625 44.289062 -43.621094 C 42.625 -47.398438 40.960938 -51.171875 39.183594 -54.945312 C 37.851562 -57.941406 36.628906 -60.9375 35.742188 -64.15625 C 35.074219 -66.710938 34.078125 -69.042969 32.191406 -70.929688 C 32.078125 -71.152344 31.96875 -71.484375 31.855469 -71.707031 C 31.746094 -72.039062 31.96875 -72.59375 32.410156 -72.816406 C 32.746094 -72.925781 33.1875 -73.148438 33.632812 -73.039062 C 34.742188 -72.925781 35.851562 -72.816406 36.964844 -72.59375 C 37.738281 -72.484375 38.296875 -72.039062 38.738281 -71.484375 C 39.738281 -69.820312 40.402344 -68.152344 41.179688 -66.378906 C 41.847656 -64.824219 42.402344 -63.269531 42.957031 -61.605469 C 44.289062 -57.832031 45.621094 -54.058594 47.175781 -50.394531 C 48.949219 -46.285156 50.28125 -42.070312 51.613281 -37.851562 C 51.949219 -36.742188 52.171875 -35.632812 52.613281 -34.519531 C 53.945312 -31.523438 55.167969 -28.414062 56.609375 -25.417969 C 58.71875 -21.089844 60.496094 -16.539062 61.9375 -11.878906 C 62.382812 -10.546875 62.9375 -9.214844 63.382812 -7.882812 C 63.492188 -7.324219 63.601562 -6.769531 63.714844 -6.214844 C 63.9375 -5.4375 63.382812 -4.660156 62.714844 -4.660156 C 62.269531 -4.550781 61.828125 -4.550781 61.273438 -4.441406 Z M 61.273438 -4.441406 "/></g></g></g><g fill="#000000" fill-opacity="1"><g transform="translate(550.909765, 478.050025)"><g><path d="M 62.050781 -39.070312 C 62.050781 -39.070312 61.9375 -39.070312 61.9375 -39.070312 C 61.9375 -43.066406 61.9375 -47.175781 61.9375 -51.171875 C 61.9375 -53.058594 61.9375 -54.835938 61.828125 -56.722656 C 61.605469 -59.71875 61.605469 -62.714844 61.605469 -65.824219 C 61.605469 -68.820312 61.492188 -71.816406 61.492188 -74.8125 C 61.492188 -75.367188 61.382812 -75.925781 61.273438 -76.480469 C 61.160156 -77.035156 60.71875 -77.476562 60.160156 -77.699219 C 59.496094 -77.921875 58.71875 -77.921875 58.054688 -77.8125 C 57.386719 -77.699219 57.054688 -77.257812 56.832031 -76.8125 C 56.5 -76.257812 56.386719 -75.703125 56.386719 -75.148438 C 56.164062 -72.816406 56.164062 -70.484375 56.164062 -68.265625 C 56.164062 -58.273438 56.164062 -48.394531 56.164062 -38.515625 C 56.164062 -37.519531 56.164062 -36.519531 56.054688 -35.519531 C 56.054688 -35.1875 55.945312 -34.964844 55.945312 -34.632812 C 55.832031 -34.300781 55.722656 -34.1875 55.390625 -34.1875 C 55.054688 -34.1875 54.722656 -34.1875 54.5 -34.300781 C 53.835938 -34.742188 53.28125 -35.519531 52.835938 -36.1875 C 51.058594 -38.851562 49.171875 -41.402344 47.285156 -43.957031 C 46.175781 -45.398438 45.066406 -46.84375 43.957031 -48.394531 C 42.625 -50.171875 41.402344 -51.835938 39.960938 -53.503906 C 38.628906 -54.945312 37.296875 -56.5 36.074219 -58.054688 C 35.519531 -58.71875 34.855469 -59.273438 34.410156 -59.941406 C 33.300781 -61.492188 32.078125 -62.9375 30.746094 -64.269531 C 30.082031 -64.824219 29.636719 -65.488281 29.082031 -66.15625 C 27.417969 -68.152344 25.753906 -70.152344 24.085938 -72.148438 C 22.867188 -73.59375 21.535156 -74.925781 20.089844 -76.035156 C 19.648438 -76.367188 19.09375 -76.699219 18.648438 -76.921875 C 17.203125 -77.257812 15.761719 -77.367188 14.429688 -77.699219 C 11.988281 -77.699219 9.546875 -77.699219 7.105469 -77.699219 C 5.882812 -77.699219 4.550781 -76.367188 4.441406 -75.148438 C 4.328125 -72.59375 4.21875 -70.039062 4.550781 -67.488281 C 4.882812 -65.601562 4.882812 -63.714844 4.882812 -61.828125 C 4.773438 -59.164062 4.773438 -56.386719 4.882812 -53.722656 C 5.105469 -47.953125 5.105469 -42.179688 5.105469 -36.519531 C 5.105469 -25.753906 5.105469 -14.984375 5.105469 -4.21875 C 5.105469 -3.109375 5.21875 -1.886719 5.328125 -0.777344 C 5.328125 0 6.214844 0.886719 6.992188 1 C 7.992188 1.109375 8.992188 1.109375 9.988281 1 C 10.765625 0.886719 11.65625 0.109375 11.765625 -0.664062 C 11.878906 -1.109375 11.988281 -1.441406 11.988281 -1.886719 C 12.097656 -3.886719 12.210938 -5.882812 12.210938 -7.992188 C 12.210938 -16.09375 12.210938 -24.308594 12.210938 -32.523438 C 12.210938 -40.402344 12.210938 -48.285156 12.210938 -56.164062 C 12.210938 -56.941406 12.097656 -57.832031 12.320312 -58.71875 C 12.320312 -59.050781 12.988281 -59.386719 13.320312 -59.164062 C 13.429688 -59.050781 13.652344 -59.050781 13.652344 -58.941406 C 14.429688 -58.054688 15.207031 -57.277344 15.984375 -56.386719 C 17.425781 -54.722656 18.648438 -53.058594 20.203125 -51.394531 C 22.089844 -49.285156 23.863281 -47.0625 25.417969 -44.621094 C 26.417969 -42.957031 27.640625 -41.292969 28.859375 -39.738281 C 29.414062 -39.070312 29.96875 -38.296875 30.414062 -37.628906 C 33.078125 -33.855469 35.742188 -30.191406 38.40625 -26.417969 C 40.625 -23.089844 42.847656 -19.757812 45.398438 -16.648438 C 45.84375 -16.207031 46.066406 -15.761719 46.398438 -15.207031 C 48.175781 -12.652344 49.949219 -9.988281 51.726562 -7.4375 C 52.390625 -6.4375 52.945312 -5.4375 53.613281 -4.550781 C 54.613281 -3.109375 55.832031 -1.886719 57.277344 -0.886719 C 58.164062 -0.222656 59.941406 -0.222656 60.9375 -0.777344 C 61.605469 -1.222656 61.9375 -1.777344 62.050781 -2.554688 C 62.160156 -2.996094 62.160156 -3.328125 62.160156 -3.773438 C 62.160156 -7.882812 62.269531 -11.878906 62.050781 -15.871094 C 62.050781 -16.871094 62.050781 -17.871094 62.050781 -18.871094 C 62.050781 -25.640625 62.050781 -32.300781 62.050781 -39.070312 Z M 11.878906 -72.816406 C 13.429688 -72.816406 13.984375 -72.816406 14.539062 -72.816406 C 15.652344 -72.816406 16.539062 -72.371094 17.316406 -71.707031 C 17.871094 -71.261719 18.425781 -70.816406 18.871094 -70.261719 C 20.425781 -68.820312 21.867188 -67.15625 23.199219 -65.488281 C 24.53125 -63.824219 25.863281 -62.160156 27.417969 -60.605469 C 27.972656 -59.941406 28.527344 -59.273438 29.082031 -58.609375 C 31.191406 -55.832031 33.300781 -53.167969 35.632812 -50.726562 C 37.074219 -49.285156 38.296875 -47.617188 39.40625 -45.953125 C 40.960938 -43.734375 42.625 -41.625 44.289062 -39.40625 C 45.066406 -38.40625 45.730469 -37.296875 46.507812 -36.296875 C 47.398438 -35.074219 48.175781 -33.964844 49.0625 -32.746094 C 50.171875 -31.300781 51.394531 -29.859375 52.726562 -28.527344 C 53.503906 -27.75 54.277344 -26.863281 55.054688 -26.085938 C 55.390625 -25.753906 55.609375 -25.417969 55.945312 -25.085938 C 56.386719 -24.421875 56.832031 -23.644531 56.941406 -22.753906 C 57.054688 -21.089844 57.277344 -19.3125 57.496094 -17.648438 C 57.832031 -15.984375 57.832031 -14.207031 57.496094 -12.542969 C 57.386719 -12.097656 57.164062 -11.765625 56.832031 -11.433594 C 56.609375 -11.210938 56.386719 -11.210938 56.054688 -11.320312 C 55.722656 -11.542969 55.277344 -11.765625 55.054688 -12.097656 C 54.5 -12.765625 53.945312 -13.429688 53.390625 -14.097656 C 49.0625 -20.3125 44.511719 -26.417969 40.183594 -32.632812 C 38.515625 -35.1875 36.851562 -37.628906 34.964844 -40.070312 C 32.746094 -42.847656 30.523438 -45.621094 28.75 -48.730469 C 27.75 -50.171875 26.75 -51.503906 25.53125 -52.835938 C 23.421875 -55.277344 21.3125 -57.832031 19.203125 -60.382812 C 18.316406 -61.492188 17.316406 -62.605469 16.316406 -63.601562 C 15.207031 -64.601562 13.984375 -65.269531 12.542969 -65.269531 C 11.988281 -65.378906 11.433594 -65.488281 10.878906 -65.710938 C 10.210938 -65.824219 9.878906 -66.265625 9.769531 -66.820312 C 9.546875 -68.152344 9.546875 -69.484375 9.433594 -70.707031 C 9.433594 -70.816406 9.433594 -71.039062 9.433594 -71.152344 C 9.433594 -71.261719 9.546875 -71.371094 9.546875 -71.59375 C 9.65625 -72.039062 10.210938 -72.59375 10.65625 -72.703125 C 11.433594 -72.703125 12.097656 -72.816406 11.878906 -72.816406 Z M 11.878906 -72.816406 "/></g></g></g><g fill="#000000" fill-opacity="1"><g transform="translate(617.065768, 478.050025)"><g><path d="M 2.996094 -37.628906 C 2.996094 -37.628906 2.996094 -37.628906 2.886719 -37.628906 C 2.996094 -35.742188 2.996094 -33.964844 3.109375 -32.078125 C 3.109375 -31.300781 3.21875 -30.636719 3.328125 -29.96875 C 3.550781 -29.304688 3.773438 -28.527344 3.886719 -27.859375 C 4.441406 -25.753906 5.105469 -23.753906 6.105469 -21.867188 C 7.660156 -18.757812 9.324219 -15.761719 11.433594 -12.988281 C 11.878906 -12.433594 12.320312 -11.878906 12.652344 -11.320312 C 15.539062 -7.324219 19.09375 -4.328125 23.308594 -2.109375 C 25.53125 -1 27.859375 -0.222656 30.304688 0.109375 C 30.96875 0.222656 31.636719 0.222656 32.410156 0.332031 C 33.523438 0.445312 34.742188 0.554688 35.851562 0.777344 C 37.074219 1 38.40625 1.109375 39.628906 1.109375 C 42.511719 1.109375 45.398438 1.109375 48.175781 0.554688 C 48.507812 0.445312 48.839844 0.445312 49.0625 0.445312 C 50.949219 0.109375 52.726562 -0.222656 54.5 -0.664062 C 56.609375 -1.222656 58.71875 -1.777344 60.605469 -2.773438 C 61.714844 -3.441406 62.824219 -4.105469 63.9375 -4.773438 C 64.269531 -4.882812 64.601562 -5.21875 64.933594 -5.4375 C 65.488281 -5.882812 65.710938 -6.328125 65.824219 -6.882812 C 66.046875 -7.882812 66.046875 -8.878906 65.933594 -9.878906 C 65.933594 -10.878906 64.601562 -11.65625 63.714844 -11.320312 C 62.9375 -10.878906 62.269531 -10.433594 61.605469 -9.878906 C 59.050781 -7.992188 56.386719 -6.328125 53.503906 -4.882812 C 51.503906 -3.886719 49.171875 -3.328125 46.953125 -2.996094 C 44.734375 -2.664062 42.402344 -2.664062 40.070312 -3.109375 C 38.515625 -3.441406 36.964844 -3.664062 35.410156 -3.773438 C 34.964844 -3.773438 34.632812 -3.886719 34.1875 -4.105469 C 32.410156 -4.773438 30.746094 -5.550781 29.191406 -6.550781 C 27.75 -7.546875 26.527344 -8.769531 25.753906 -10.324219 C 24.640625 -12.210938 23.53125 -13.984375 22.53125 -15.871094 C 21.757812 -17.316406 21.199219 -18.757812 20.867188 -20.3125 C 20.535156 -21.867188 20.3125 -23.421875 19.867188 -24.976562 C 19.425781 -26.527344 19.203125 -28.304688 18.871094 -29.96875 C 18.425781 -31.96875 18.316406 -37.851562 18.757812 -39.847656 C 19.203125 -41.625 19.3125 -43.511719 19.3125 -45.398438 C 19.3125 -47.617188 19.425781 -49.949219 20.089844 -52.171875 C 20.757812 -55.390625 21.976562 -58.496094 23.421875 -61.382812 C 23.753906 -61.9375 23.976562 -62.382812 24.308594 -62.9375 C 26.085938 -65.488281 28.082031 -67.933594 30.746094 -69.707031 C 31.414062 -70.261719 32.078125 -70.816406 32.855469 -71.261719 C 35.742188 -73.261719 38.851562 -74.480469 42.511719 -74.371094 C 43.511719 -74.257812 44.511719 -74.371094 45.511719 -74.257812 C 48.0625 -73.816406 50.617188 -73.480469 53.167969 -73.371094 C 53.28125 -73.371094 53.390625 -73.371094 53.613281 -73.261719 C 55.054688 -72.816406 56.609375 -72.59375 58.164062 -72.039062 C 58.941406 -71.707031 59.71875 -71.371094 60.496094 -71.152344 C 61.605469 -70.816406 62.714844 -70.597656 63.9375 -70.707031 C 64.492188 -70.816406 64.933594 -71.371094 64.933594 -71.929688 C 64.933594 -72.703125 64.601562 -73.261719 64.046875 -73.703125 C 62.714844 -74.703125 61.273438 -75.148438 59.828125 -75.8125 C 59.496094 -75.925781 59.273438 -75.925781 58.941406 -76.035156 C 56.832031 -76.257812 54.722656 -76.589844 52.503906 -76.8125 C 50.503906 -77.035156 48.507812 -77.257812 46.621094 -77.476562 C 44.734375 -77.699219 42.847656 -77.921875 40.960938 -77.921875 C 39.40625 -77.921875 37.851562 -77.699219 36.296875 -77.367188 C 34.410156 -76.8125 32.410156 -76.367188 30.414062 -76.035156 C 29.746094 -76.035156 29.082031 -75.703125 28.414062 -75.480469 C 26.085938 -74.371094 23.863281 -73.148438 21.535156 -71.929688 C 16.539062 -69.152344 16.761719 -69.152344 12.433594 -64.824219 C 12.320312 -64.824219 12.210938 -64.714844 12.097656 -64.601562 C 9.433594 -61.714844 7.214844 -58.609375 5.773438 -54.945312 C 4.882812 -52.390625 3.886719 -49.839844 3.773438 -47.0625 C 3.664062 -46.621094 3.664062 -46.175781 3.441406 -45.730469 C 3.109375 -44.511719 2.996094 -43.289062 2.996094 -41.957031 C 2.996094 -40.515625 2.996094 -39.070312 2.996094 -37.628906 Z M 7.546875 -37.851562 C 7.546875 -38.738281 7.660156 -39.738281 7.769531 -40.738281 C 7.769531 -41.515625 7.992188 -42.179688 8.101562 -42.847656 C 8.324219 -45.621094 8.992188 -48.285156 9.878906 -50.839844 C 10.65625 -53.28125 11.65625 -55.609375 13.210938 -57.71875 C 14.097656 -58.941406 14.875 -60.050781 15.761719 -61.160156 C 16.09375 -61.492188 16.429688 -61.714844 16.761719 -61.9375 C 16.871094 -62.050781 17.09375 -62.160156 17.203125 -62.050781 C 17.425781 -61.9375 17.539062 -61.605469 17.539062 -61.382812 C 17.539062 -61.050781 17.425781 -60.828125 17.316406 -60.496094 C 16.761719 -58.941406 16.207031 -57.277344 15.652344 -55.609375 C 15.097656 -53.722656 14.984375 -51.726562 14.539062 -49.726562 C 14.429688 -49.507812 14.429688 -49.171875 14.429688 -48.949219 C 14.207031 -42.511719 14.097656 -36.074219 14.207031 -29.636719 C 14.207031 -28.75 14.207031 -27.859375 14.207031 -27.085938 C 14.320312 -26.640625 14.320312 -26.195312 14.429688 -25.753906 C 15.097656 -24.199219 15.097656 -22.421875 15.539062 -20.757812 C 15.761719 -20.089844 15.871094 -19.425781 15.984375 -18.648438 C 16.09375 -18.316406 15.984375 -17.871094 15.984375 -17.425781 C 15.871094 -17.316406 15.761719 -17.09375 15.761719 -17.09375 C 15.429688 -17.09375 15.207031 -17.09375 14.984375 -17.203125 C 14.761719 -17.316406 14.539062 -17.539062 14.429688 -17.761719 C 12.433594 -20.644531 10.878906 -23.644531 9.65625 -26.863281 C 8.324219 -30.414062 7.660156 -34.078125 7.546875 -37.851562 Z M 7.546875 -37.851562 "/></g></g></g><g fill="#000000" fill-opacity="1"><g transform="translate(684.886748, 478.050025)"><g><path d="M 42.957031 -77.8125 C 41.625 -77.8125 40.402344 -77.8125 39.070312 -77.8125 C 38.296875 -77.8125 37.628906 -77.8125 36.964844 -77.589844 C 35.519531 -77.257812 34.078125 -77.144531 32.632812 -77.035156 C 31.523438 -77.035156 30.414062 -76.8125 29.304688 -76.480469 C 26.863281 -75.925781 24.640625 -75.035156 22.421875 -73.925781 C 19.757812 -72.703125 17.316406 -70.816406 15.097656 -68.820312 C 14.875 -68.488281 14.539062 -68.152344 14.207031 -67.820312 C 12.097656 -64.933594 9.878906 -62.160156 8.4375 -58.828125 C 8.101562 -57.832031 7.546875 -56.941406 7.105469 -56.054688 C 5.21875 -52.390625 4.105469 -48.394531 3.550781 -44.179688 C 3.441406 -42.625 3.550781 -41.070312 3.328125 -39.515625 C 2.996094 -36.296875 3.664062 -33.1875 4.105469 -30.082031 C 4.660156 -28.527344 4.773438 -26.75 5.4375 -25.085938 C 6.328125 -22.753906 7.4375 -20.425781 8.65625 -18.09375 C 8.992188 -17.539062 9.433594 -16.984375 9.878906 -16.429688 C 11.210938 -14.875 12.542969 -13.429688 14.097656 -12.097656 C 15.316406 -11.101562 16.648438 -10.101562 17.761719 -9.101562 C 19.09375 -7.769531 20.644531 -6.769531 22.199219 -5.660156 C 25.195312 -3.773438 28.414062 -2.109375 31.746094 -0.886719 C 33.410156 -0.222656 34.964844 0.332031 36.742188 0.445312 C 37.296875 0.445312 37.851562 0.554688 38.40625 0.664062 C 40.515625 1.222656 42.734375 1.109375 44.84375 0.777344 C 45.84375 0.664062 46.84375 0.445312 47.839844 0.445312 C 49.394531 0.332031 50.949219 -0.109375 52.503906 -0.445312 C 56.054688 -1.222656 59.164062 -2.773438 62.160156 -4.773438 C 66.15625 -7.4375 69.484375 -10.878906 72.371094 -14.539062 C 73.816406 -16.429688 75.035156 -18.316406 75.8125 -20.535156 C 76.699219 -22.644531 77.476562 -24.753906 78.03125 -26.972656 C 78.144531 -27.527344 78.476562 -28.082031 78.476562 -28.636719 C 78.699219 -30.636719 78.921875 -32.632812 79.476562 -34.632812 C 79.585938 -35.074219 79.476562 -35.742188 79.476562 -36.296875 C 79.585938 -37.628906 79.585938 -38.851562 79.585938 -40.183594 C 79.585938 -42.179688 79.585938 -44.179688 78.921875 -46.175781 C 78.808594 -46.398438 78.808594 -46.730469 78.808594 -46.953125 C 78.144531 -51.171875 76.699219 -55.054688 74.371094 -58.496094 C 73.148438 -60.496094 71.816406 -62.382812 70.484375 -64.15625 C 69.484375 -65.710938 68.152344 -67.15625 66.820312 -68.375 C 65.710938 -69.265625 64.601562 -70.261719 63.601562 -71.261719 C 62.160156 -72.703125 60.496094 -73.816406 58.71875 -74.703125 C 57.832031 -75.148438 56.941406 -75.589844 56.054688 -76.035156 C 54.722656 -76.589844 53.390625 -77.144531 51.949219 -77.144531 C 51.058594 -77.144531 50.171875 -77.257812 49.394531 -77.476562 C 48.175781 -77.699219 47.0625 -77.8125 45.953125 -77.8125 C 44.953125 -77.8125 43.957031 -77.8125 42.957031 -77.8125 Z M 62.492188 -37.074219 C 62.492188 -35.851562 62.382812 -34.519531 62.382812 -33.1875 C 62.382812 -31.078125 62.269531 -28.972656 61.605469 -26.863281 C 61.273438 -23.863281 60.273438 -20.980469 59.605469 -18.09375 C 59.386719 -16.984375 58.941406 -15.871094 58.386719 -14.875 C 57.386719 -13.097656 56.5 -11.320312 55.390625 -9.65625 C 54.945312 -8.769531 54.277344 -7.992188 53.613281 -7.214844 C 52.613281 -5.992188 51.394531 -5.105469 49.839844 -4.550781 C 48.730469 -4.21875 47.617188 -3.886719 46.507812 -3.773438 C 45.730469 -3.664062 45.066406 -3.664062 44.289062 -3.550781 C 43.289062 -3.441406 42.289062 -3.441406 41.292969 -3.550781 C 40.738281 -3.664062 40.183594 -3.664062 39.628906 -3.773438 C 36.851562 -4.105469 34.410156 -5.21875 32.191406 -6.882812 C 31.078125 -7.769531 30.082031 -8.878906 28.972656 -9.769531 C 27.527344 -11.101562 26.308594 -12.765625 25.640625 -14.652344 C 25.53125 -14.761719 25.53125 -14.984375 25.417969 -15.097656 C 23.644531 -19.203125 23.644531 -19.203125 22.753906 -23.644531 C 22.753906 -23.976562 22.753906 -24.199219 22.644531 -24.53125 C 21.199219 -31.414062 21.3125 -32.410156 21.757812 -40.292969 C 21.757812 -40.847656 21.867188 -41.402344 21.867188 -42.070312 C 21.976562 -45.730469 22.753906 -49.394531 23.308594 -53.058594 C 23.644531 -54.835938 24.085938 -56.5 24.640625 -58.054688 C 25.195312 -60.160156 25.972656 -62.160156 26.863281 -64.046875 C 28.082031 -66.601562 29.746094 -68.710938 31.855469 -70.484375 C 32.855469 -71.371094 33.855469 -72.148438 34.964844 -72.816406 C 36.074219 -73.480469 37.296875 -73.925781 38.628906 -73.925781 C 40.738281 -73.925781 42.957031 -73.703125 45.066406 -73.261719 C 47.730469 -72.703125 50.171875 -71.484375 52.390625 -69.929688 C 52.835938 -69.597656 53.28125 -69.152344 53.613281 -68.710938 C 55.945312 -65.933594 57.71875 -62.824219 58.941406 -59.386719 C 60.050781 -56.277344 60.71875 -53.058594 61.382812 -49.839844 C 61.492188 -49.507812 61.492188 -49.0625 61.605469 -48.617188 C 61.828125 -47.507812 62.269531 -46.398438 62.382812 -45.289062 C 62.382812 -43.84375 62.492188 -42.402344 62.605469 -40.960938 C 62.605469 -39.628906 62.605469 -38.40625 62.605469 -37.074219 C 62.605469 -37.074219 62.605469 -37.074219 62.492188 -37.074219 Z M 8.101562 -38.851562 C 7.882812 -42.625 9.546875 -49.0625 11.210938 -52.613281 C 11.988281 -54.167969 12.652344 -55.722656 13.429688 -57.277344 C 14.875 -60.160156 16.761719 -62.9375 18.980469 -65.378906 C 19.425781 -65.933594 20.089844 -66.265625 20.757812 -66.601562 C 20.980469 -66.710938 21.757812 -66.265625 21.757812 -65.933594 C 21.757812 -65.824219 21.757812 -65.710938 21.757812 -65.488281 C 20.980469 -63.601562 20.203125 -61.492188 19.648438 -59.496094 C 19.09375 -57.386719 18.425781 -55.390625 18.316406 -53.167969 C 18.316406 -52.726562 18.316406 -52.28125 18.09375 -51.949219 C 17.539062 -50.394531 17.539062 -48.839844 17.539062 -47.285156 C 17.539062 -46.398438 17.539062 -45.511719 17.425781 -44.734375 C 17.425781 -44.179688 17.316406 -43.511719 17.203125 -42.957031 C 16.761719 -41.625 16.761719 -40.183594 16.761719 -38.738281 C 16.761719 -35.851562 16.761719 -33.078125 16.761719 -30.191406 C 16.761719 -29.414062 16.761719 -28.75 16.871094 -28.082031 C 17.203125 -26.640625 17.425781 -25.195312 17.648438 -23.863281 C 17.761719 -22.53125 18.203125 -21.3125 18.316406 -20.089844 C 18.535156 -19.09375 18.980469 -18.09375 19.09375 -17.09375 C 19.203125 -16.761719 19.203125 -16.316406 19.203125 -15.871094 C 19.203125 -15.761719 19.09375 -15.539062 18.980469 -15.539062 C 18.871094 -15.316406 18.535156 -15.316406 18.316406 -15.429688 C 16.207031 -16.648438 14.539062 -18.203125 13.429688 -20.203125 C 11.765625 -23.089844 10.324219 -25.972656 9.433594 -29.191406 C 9.214844 -29.859375 9.101562 -30.523438 8.992188 -31.300781 C 8.878906 -31.855469 8.878906 -32.410156 8.769531 -32.96875 C 8.101562 -34.964844 8.101562 -36.964844 8.101562 -38.851562 Z M 74.703125 -39.070312 C 74.703125 -35.519531 73.925781 -30.859375 72.925781 -27.527344 C 72.703125 -26.863281 72.484375 -26.085938 72.261719 -25.417969 C 70.484375 -20.535156 69.265625 -18.425781 65.824219 -14.429688 C 65.601562 -14.097656 65.269531 -13.875 64.824219 -13.652344 C 64.601562 -13.429688 64.269531 -13.542969 64.15625 -13.765625 C 64.046875 -13.875 63.9375 -14.097656 63.9375 -14.207031 C 63.9375 -14.429688 63.9375 -14.761719 64.046875 -14.984375 C 64.601562 -16.761719 64.933594 -18.648438 65.378906 -20.425781 C 66.265625 -23.421875 66.601562 -26.527344 67.15625 -29.636719 C 67.265625 -30.082031 67.265625 -30.523438 67.265625 -30.96875 C 67.378906 -35.1875 67.488281 -39.515625 67.378906 -43.84375 C 67.378906 -45.289062 67.265625 -46.621094 66.933594 -48.0625 C 66.488281 -49.726562 66.15625 -51.394531 65.824219 -53.058594 C 65.15625 -56.164062 64.492188 -59.273438 63.382812 -62.160156 C 63.269531 -62.605469 63.269531 -63.046875 63.160156 -63.492188 C 63.160156 -63.601562 63.269531 -63.714844 63.382812 -63.824219 C 63.492188 -64.046875 63.824219 -64.046875 64.046875 -63.9375 C 64.492188 -63.601562 64.714844 -63.382812 65.046875 -63.046875 C 66.710938 -61.050781 68.152344 -58.941406 69.484375 -56.722656 C 72.148438 -52.726562 73.703125 -48.285156 74.371094 -43.621094 C 74.59375 -42.070312 74.8125 -40.515625 74.703125 -39.070312 Z M 74.703125 -39.070312 "/></g></g></g><g fill="#000000" fill-opacity="1"><g transform="translate(766.905085, 478.050025)"><g/></g></g></svg>